<svg viewBox="0 0 504.3 504.3" version="1.1" xmlns="http://www.w3.org/2000/svg" data-sanitized-data-name="Capa 1" data-name="Capa 1" id="Capa_1">
  <defs>
    <style>
      .cls-1 {
        fill: #e0e0e0;
        stroke-width: 0px;
      }

      .cls-2 {
        isolation: isolate;
      }
    </style>
  </defs>
  <path d="M253.7,401.9c-40,0-77.6-15.6-105.9-43.9-28.3-28.3-43.9-65.9-43.9-105.9s15.6-77.6,43.9-105.9c28.3-28.3,65.9-43.9,105.9-43.9s77.6,15.6,105.9,43.9,43.9,65.9,43.9,105.9-15.6,77.6-43.9,105.9c-28.3,28.3-65.9,43.9-105.9,43.9h0ZM253.7,104.8c-39.4,0-76.4,15.3-104.2,43.2-27.8,27.8-43.2,64.8-43.2,104.2s15.3,76.4,43.2,104.2c27.8,27.8,64.8,43.2,104.2,43.2s76.4-15.3,104.2-43.2c27.8-27.8,43.2-64.8,43.2-104.2s-15.3-76.4-43.2-104.2c-27.8-27.8-64.8-43.2-104.2-43.2h0Z" class="cls-1"></path>
  <g class="cls-2">
    <g class="cls-2">
      <path d="M83.6,140.4l26.3,14.8-2.4,4.3-14.7-8.2,11.6,13.7-2.6,4.6-17.7-2.8,14.7,8.2-2.4,4.3-26.3-14.8,2.6-4.6,24.3,3.9-16-18.7,2.6-4.6Z" class="cls-1"></path>
    </g>
  </g>
  <g class="cls-2">
    <g class="cls-2">
      <path d="M126.1,134.9l-3.3,4.1-7.4-3-5.5,7,4.6,6.5-3.3,4.1-17.9-26.1,3.3-4.1,29.5,11.5ZM113,135l-12.3-5,7.7,10.8,4.6-5.8Z" class="cls-1"></path>
    </g>
  </g>
  <g class="cls-2">
    <g class="cls-2">
      <path d="M128.6,104.8l6.7,7c3.4,3.6,4,9.1,1.3,13.3l2.5,2.6-3.6,3.4-2.5-2.6c-4.2,2.5-9.7,1.8-13.2-1.8l-6.7-7c-4.1-4.3-3.9-11,.4-15.1s11-4,15.1.3ZM124.6,107.9c-2.2-2.3-5.9-2.4-8.2-.2-2.3,2.2-2.3,5.9-.1,8.2l7.6,7.9c2.2,2.3,5.9,2.4,8.2.2,2.3-2.2,2.3-5.9.1-8.2l-7.6-7.9Z" class="cls-1"></path>
    </g>
  </g>
  <g class="cls-2">
    <g class="cls-2">
      <path d="M144.1,80.5l11.7,16.2c3.5,4.8,2.4,11.5-2.4,15-4.8,3.5-11.5,2.4-15-2.4l-11.7-16.2,4-2.9,12.1,16.7c1.9,2.6,5.5,3.2,8.1,1.3,2.6-1.9,3.1-5.5,1.3-8.1l-12.1-16.7,4-2.9Z" class="cls-1"></path>
    </g>
  </g>
  <g class="cls-2">
    <g class="cls-2">
      <path d="M154,74.8l15.3,26.1-4.3,2.5-15.3-26.1,4.3-2.5Z" class="cls-1"></path>
    </g>
  </g>
  <g class="cls-2">
    <g class="cls-2">
      <path d="M185.7,87.7l1.9,3.9c-5.3,2.6-15.1,7.2-15.1,7.2l-13-27.2,4.5-2.1,11.2,23.4s7.7-3.7,10.6-5.1Z" class="cls-1"></path>
    </g>
  </g>
  <g class="cls-2">
    <g class="cls-2">
      <path d="M204.4,81.1l1.4,4.1c-5.6,1.9-15.8,5.5-15.8,5.5l-9.9-28.5,4.7-1.6,8.5,24.5s8-2.9,11.1-3.9Z" class="cls-1"></path>
    </g>
  </g>
  <g class="cls-2">
    <g class="cls-2">
      <path d="M231.5,79.5l-5.1,1.1-3.8-7.1-8.7,1.8-.7,8-5.1,1.1,3-31.5,5.1-1.1,15.2,27.7ZM221.4,71.2l-6.2-11.7-1.1,13.2,7.3-1.5Z" class="cls-1"></path>
    </g>
  </g>
  <g class="cls-2">
    <g class="cls-2">
      <path d="M254,57.8l.6,10.1c.3,5.5-3.9,10.3-9.4,10.6l-11.4.7-.3-4.3-1.6-25.8,11.4-.7c5.5-.3,10.3,3.9,10.6,9.4ZM249,57.6c-.2-2.9-2.6-5-5.5-4.9l-6.3.4,1.3,21.5,6.3-.4c2.9-.2,5-2.6,4.9-5.5l-.7-11.1Z" class="cls-1"></path>
    </g>
  </g>
  <g class="cls-2">
    <g class="cls-2">
      <path d="M280.6,59.6l-.7,9.7c-.4,6-5.6,10.3-11.5,9.9-5.9-.4-10.3-5.6-9.9-11.5l.7-9.7c.4-5.9,5.6-10.3,11.5-9.8,5.9.4,10.3,5.6,9.9,11.5ZM275.7,58.7c.2-3.2-2.1-6-5.3-6.2-3.2-.2-5.9,2.2-6.2,5.4l-.8,10.9c-.2,3.2,2.1,6,5.3,6.2,3.2.2,5.9-2.2,6.2-5.4l.8-10.9Z" class="cls-1"></path>
    </g>
  </g>
  <g class="cls-2">
    <g class="cls-2">
      <path d="M303.9,79.5c-1,4.4-.6,2.6-1.1,5.1l-4.9-1.1c.3-1.4.5-2.3.7-3.1.2-.8.3-1.5.6-2.9.6-2.6-1-5.1-3.6-5.7l-6.6-1.4-2.3,10.6-4.9-1.1,6.4-29.5,11.5,2.5c5.2,1.1,8.5,6.3,7.4,11.5-.7,3.3-3.1,5.9-6,7,2.3,1.9,3.4,4.9,2.8,8ZM302.1,64.3c.4-1.7,0-3.4-.8-4.7-.8-1.4-2.2-2.4-3.9-2.7l-5.2-1.1-2.7,12.2,5.2,1.1c3.4.7,6.7-1.4,7.4-4.8Z" class="cls-1"></path>
    </g>
  </g>
  <g class="cls-2">
    <g class="cls-2">
      <path d="M347.6,81.3l-4.2,8.8c-2.5,5.4-8.9,7.7-14.3,5.1-5.4-2.5-7.7-8.9-5.1-14.3l4.2-8.8c2.5-5.4,8.9-7.6,14.3-5.1,5.4,2.5,7.7,8.9,5.2,14.2ZM343.3,78.7c1.4-2.9.2-6.4-2.7-7.7s-6.3,0-7.7,2.8l-4.7,9.9c-1.4,2.9-.2,6.3,2.7,7.7,2.9,1.4,6.3,0,7.7-2.8l4.7-9.9Z" class="cls-1"></path>
    </g>
  </g>
  <g class="cls-2">
    <g class="cls-2">
      <path d="M359.7,81.8l-4.5,7,5.5,3.6-1.3,2.1-5.5-3.6-8.2,12.7-4.2-2.7,16.3-25.4,15.4,9.9-2.4,3.7-11.2-7.2Z" class="cls-1"></path>
    </g>
  </g>
  <g class="cls-2">
    <g class="cls-2">
      <path d="M381.6,91.9l-18.4,23.9-3.9-3,18.4-23.9,3.9,3Z" class="cls-1"></path>
    </g>
  </g>
  <g class="cls-2">
    <g class="cls-2">
      <path d="M385.1,121.4l3.6,3.4c-4.1,4.4-10.8,4.6-15.2.5-4.3-4-4.6-10.8-.5-15.2l6.6-7.1c4-4.3,10.8-4.5,15.1-.5,4.3,4,4.6,10.8.6,15.1l-3.6-3.4.4-.4c2.2-2.3,2.1-6-.2-8.2-2.3-2.2-6-2-8.2.3l-7.5,8c-2.2,2.3-2.1,6,.2,8.2,2.3,2.2,6,2,8.2-.3l.4-.5Z" class="cls-1"></path>
    </g>
  </g>
  <g class="cls-2">
    <g class="cls-2">
      <path d="M409.4,118.4l-22.6,20.1-3.3-3.7,22.5-20.1,3.3,3.7Z" class="cls-1"></path>
    </g>
  </g>
  <g class="cls-2">
    <g class="cls-2">
      <path d="M403,159.7l-3.1-4.2,4.9-6.3-5.2-7.2-7.5,2.7-3.1-4.2,29.9-10.3,3.1,4.2-18.9,25.3ZM406.4,147l8.1-10.5-12.5,4.5,4.4,6Z" class="cls-1"></path>
    </g>
  </g>
  <g class="cls-2">
    <g class="cls-2">
      <path d="M416,174.5l-3.8,2.1c-2.8-5.2-8-14.7-8-14.7l26.5-14.5,2.4,4.4-22.8,12.4s4.1,7.5,5.7,10.3Z" class="cls-1"></path>
    </g>
  </g>
  <g class="cls-2">
    <g class="cls-2">
      <path d="M113,350.6l-26.1,15.2-2.5-4.3,14.5-8.5-17.7,3.1-2.7-4.6,11.4-13.8-14.5,8.5-2.5-4.3,26.1-15.2,2.7,4.6-15.6,19,24.2-4.3,2.7,4.6Z" class="cls-1"></path>
    </g>
  </g>
  <g class="cls-2">
    <g class="cls-2">
      <path d="M106,389.7l-3.3-4,4.5-6.6-5.6-6.9-7.4,3.1-3.3-4,29.3-12,3.3,4-17.4,26.4ZM108.6,376.9l7.5-10.9-12.2,5.2,4.7,5.7Z" class="cls-1"></path>
    </g>
  </g>
  <g class="cls-2">
    <g class="cls-2">
      <path d="M138.8,393.2l-6.6,7.1c-3.4,3.6-8.9,4.5-13.2,2.1l-2.5,2.6-3.6-3.3,2.5-2.6c-2.7-4-2.4-9.6,1.1-13.3l6.6-7.1c4-4.3,10.8-4.6,15.1-.5,4.3,4,4.6,10.8.6,15.1ZM135.6,389.4c2.1-2.3,2.1-6-.3-8.2-2.3-2.2-6-2-8.2.3l-7.4,8c-2.2,2.3-2.1,6,.3,8.2,2.3,2.2,6,2,8.2-.3l7.4-8Z" class="cls-1"></path>
    </g>
  </g>
  <g class="cls-2">
    <g class="cls-2">
      <path d="M165.2,399.5l-11.4,16.3c-3.4,4.9-10.1,6-14.9,2.6-4.8-3.4-6.1-10.1-2.6-14.9l11.4-16.3,4.1,2.9-11.8,16.9c-1.8,2.6-1.2,6.2,1.4,8.1,2.6,1.8,6.2,1.2,8-1.5l11.8-16.9,4.1,2.8Z" class="cls-1"></path>
    </g>
  </g>
  <g class="cls-2">
    <g class="cls-2">
      <path d="M172.7,403.4l-14.8,26.3-4.3-2.4,14.8-26.3,4.3,2.4Z" class="cls-1"></path>
    </g>
  </g>
  <g class="cls-2">
    <g class="cls-2">
      <path d="M180.2,435.8l-1.8,3.9c-5.4-2.5-15.2-7-15.2-7l12.6-27.5,4.5,2.1-10.8,23.6s7.8,3.5,10.7,4.8Z" class="cls-1"></path>
    </g>
  </g>
  <g class="cls-2">
    <g class="cls-2">
      <path d="M201,442.9l-1.4,4.1c-5.6-1.8-15.9-5.2-15.9-5.2l9.4-28.7,4.7,1.6-8.1,24.6s8.1,2.6,11.2,3.6Z" class="cls-1"></path>
    </g>
  </g>
  <g class="cls-2">
    <g class="cls-2">
      <path d="M229.1,453.3l-5.1-1-.8-8-8.7-1.7-3.6,7.1-5.1-1,14.8-28,5.1,1,3.5,31.4ZM222.9,441.8l-1.3-13.2-6,11.8,7.3,1.4Z" class="cls-1"></path>
    </g>
  </g>
  <g class="cls-2">
    <g class="cls-2">
      <path d="M257.7,434.7l-.4,10.1c-.2,5.5-4.9,9.8-10.5,9.6l-11.4-.5.2-4.3,1.1-25.8,11.4.5c5.5.2,9.8,4.9,9.6,10.5ZM252.8,434c.1-2.9-2.1-5.3-4.9-5.4l-6.3-.3-.9,21.5,6.3.3c2.9.1,5.3-2.1,5.4-4.9l.5-11.1Z" class="cls-1"></path>
    </g>
  </g>
  <g class="cls-2">
    <g class="cls-2">
      <path d="M282.7,432.8l.9,9.7c.5,5.9-3.8,11.1-9.7,11.7-5.9.5-11.1-3.8-11.7-9.7l-.9-9.7c-.5-5.9,3.8-11.1,9.7-11.6,5.9-.5,11.1,3.8,11.7,9.7ZM277.7,432.7c-.3-3.2-3.1-5.6-6.3-5.3-3.2.3-5.5,3.1-5.2,6.3l1,10.9c.3,3.2,3.1,5.6,6.3,5.3,3.2-.3,5.5-3.1,5.2-6.3l-1-10.9Z" class="cls-1"></path>
    </g>
  </g>
  <g class="cls-2">
    <g class="cls-2">
      <path d="M310.9,441.7c1,4.4.6,2.6,1.2,5l-4.8,1.1c-.3-1.4-.5-2.3-.7-3.1-.2-.8-.4-1.5-.7-2.9-.6-2.5-3.1-4.2-5.7-3.5l-6.6,1.5,2.5,10.6-4.8,1.1-6.9-29.4,11.5-2.7c5.2-1.2,10.4,2,11.6,7.2.8,3.3-.3,6.6-2.4,8.9,2.9.7,5.2,3,5.9,6ZM302.8,428.8c-.4-1.7-1.4-3.1-2.8-3.9-1.3-.9-3-1.2-4.7-.8l-5.1,1.2,2.9,12.2,5.1-1.2c3.4-.8,5.4-4.1,4.6-7.5Z" class="cls-1"></path>
    </g>
  </g>
  <g class="cls-2">
    <g class="cls-2">
      <path d="M345.3,411.2l4.3,8.7c2.6,5.4.4,11.8-4.9,14.4-5.3,2.6-11.7.5-14.4-4.9l-4.3-8.7c-2.6-5.3-.4-11.7,4.9-14.3,5.3-2.6,11.7-.5,14.3,4.8ZM340.6,412.8c-1.4-2.9-4.9-4.1-7.7-2.7-2.9,1.4-4,4.9-2.6,7.8l4.8,9.8c1.4,2.9,4.9,4.1,7.7,2.7,2.9-1.4,4-4.9,2.6-7.8l-4.8-9.8Z" class="cls-1"></path>
    </g>
  </g>
  <g class="cls-2">
    <g class="cls-2">
      <path d="M349.6,401.4l4.6,6.9,5.5-3.7,1.4,2-5.5,3.7,8.4,12.6-4.1,2.8-16.8-25.1,15.2-10.2,2.4,3.6-11.1,7.4Z" class="cls-1"></path>
    </g>
  </g>
  <g class="cls-2">
    <g class="cls-2">
      <path d="M364.4,385.4l18.8,23.6-3.9,3.1-18.8-23.6,3.9-3.1Z" class="cls-1"></path>
    </g>
  </g>
  <g class="cls-2">
    <g class="cls-2">
      <path d="M392.8,386.5l3.6-3.5c4.1,4.3,4,11.1-.3,15.2-4.3,4.1-11,4-15.2-.3l-6.8-7c-4.1-4.3-3.9-11,.3-15.1,4.3-4.1,11-4,15.1.2l-3.6,3.5-.4-.4c-2.2-2.3-5.9-2.4-8.2-.2-2.3,2.2-2.3,5.9-.1,8.2l7.6,7.9c2.2,2.3,5.9,2.4,8.2.2,2.3-2.2,2.3-5.9.1-8.2l-.4-.5Z" class="cls-1"></path>
    </g>
  </g>
  <g class="cls-2">
    <g class="cls-2">
      <path d="M387.4,362.6l22.9,19.7-3.2,3.8-22.9-19.7,3.2-3.8Z" class="cls-1"></path>
    </g>
  </g>
  <g class="cls-2">
    <g class="cls-2">
      <path d="M427.9,358.6l-3,4.3-7.6-2.6-5.1,7.3,5,6.3-3,4.3-19.3-25,3-4.3,30.1,9.8ZM414.8,359.5l-12.5-4.3,8.3,10.4,4.3-6.1Z" class="cls-1"></path>
    </g>
  </g>
  <g class="cls-2">
    <g class="cls-2">
      <path d="M434.8,336.4l3.8,2c-2.7,5.2-7.8,14.8-7.8,14.8l-26.8-14,2.3-4.4,23,12s3.9-7.6,5.4-10.4Z" class="cls-1"></path>
    </g>
  </g>
</svg>