<svg viewBox="0 0 504.3 504.3" version="1.1" xmlns="http://www.w3.org/2000/svg" data-sanitized-data-name="Capa 1" data-name="Capa 1" id="Capa_1">
  <defs>
    <style>
      .cls-1 {
        fill: #676766;
      }

      .cls-1, .cls-2, .cls-3 {
        stroke-width: 0px;
      }

      .cls-2 {
        fill: #e0e0e0;
      }

      .cls-3 {
        fill: #5e5e5e;
      }

      .cls-4 {
        isolation: isolate;
      }
    </style>
  </defs>
  <circle r="243.3" cy="252.2" cx="252.2" class="cls-1"></circle>
  <path d="M252.2,11C119,11,11,119,11,252.2s108,241.2,241.1,241.2,241.1-108,241.1-241.1S385.4,11,252.2,11ZM252.2,400.7c-82.1,0-148.6-66.5-148.6-148.6S170.1,103.6,252.2,103.6s148.6,66.5,148.6,148.6-66.5,148.6-148.6,148.6h0Z" class="cls-3"></path>
  <g>
    <g>
      <path d="M134.3,250.2c-1.4,1.6-3.4,2.4-5.9,2.4s-4.3-.8-5.9-2.3c-1.6-1.5-2.3-3.6-2.3-6s.8-4.5,2.4-6c1.6-1.5,3.5-2.3,5.9-2.3s4.3.7,5.7,2.1l-1,1.8c-.4-.5-1-.9-1.9-1.3-.9-.4-1.8-.6-2.8-.6-1.8,0-3.2.6-4.3,1.8-1.1,1.1-1.7,2.7-1.7,4.5s.6,3.4,1.7,4.6c1.1,1.1,2.6,1.7,4.3,1.7s3.6-.6,4.8-2l1,1.7h0Z" class="cls-2"></path>
      <path d="M158.9,244.2c0,2.5-.8,4.5-2.4,6.1s-3.6,2.3-5.9,2.3-4.3-.8-5.9-2.3c-1.6-1.5-2.4-3.6-2.4-6.1s.8-4.5,2.4-6c1.6-1.5,3.6-2.3,5.9-2.3s4.3.8,5.9,2.3c1.6,1.5,2.4,3.5,2.4,6ZM146.3,248.8c1.1,1.1,2.6,1.7,4.3,1.7s3.1-.6,4.3-1.7,1.7-2.7,1.7-4.6-.6-3.4-1.7-4.6-2.6-1.7-4.3-1.7-3.1.6-4.3,1.7-1.7,2.7-1.7,4.6.6,3.4,1.7,4.6h0Z" class="cls-2"></path>
      <path d="M176.4,250.3v1.9h-7.9v-16.1h2.3v14.2h5.7Z" class="cls-2"></path>
      <path d="M200.2,244.2c0,2.5-.8,4.5-2.4,6.1s-3.6,2.3-5.9,2.3-4.3-.8-5.9-2.3c-1.6-1.5-2.4-3.6-2.4-6.1s.8-4.5,2.4-6c1.6-1.5,3.6-2.3,5.9-2.3s4.3.8,5.9,2.3c1.6,1.5,2.4,3.5,2.4,6ZM187.6,248.8c1.1,1.1,2.6,1.7,4.3,1.7s3.1-.6,4.3-1.7,1.7-2.7,1.7-4.6-.6-3.4-1.7-4.6-2.6-1.7-4.3-1.7-3.1.6-4.3,1.7-1.7,2.7-1.7,4.6.6,3.4,1.7,4.6h0Z" class="cls-2"></path>
      <path d="M225.5,236.2l1.5,16.1h-2.2l-1.1-12.7h0l-4.9,12.9h-1.3l-4.9-12.9h0l-1,12.7h-2.2l1.4-16.1h2.8l4.6,12.4h0l4.6-12.4h2.8,0Z" class="cls-2"></path>
      <path d="M246.1,251.2c-.9.7-2.2,1.1-4.1,1.1h-5.2v-16.1h4.3c1.8,0,3,.3,3.8.8,1.1.8,1.7,1.8,1.7,3.3s-1.1,3.1-2.4,3.5h0c2.2.5,3.6,1.9,3.6,4s-.6,2.6-1.7,3.5h0ZM243.4,238.4c-.5-.3-1.3-.4-2.2-.4h-2.1v5.1h1.9c1.2,0,2-.2,2.4-.5.7-.5,1.1-1.2,1.1-2.1s-.4-1.7-1.1-2.1h0ZM244.3,245.4c-.6-.4-1.5-.6-2.8-.6h-2.4v5.6h2.4c1.3,0,2.3-.2,2.8-.6.8-.5,1.2-1.3,1.2-2.3s-.4-1.7-1.2-2.2h0Z" class="cls-2"></path>
      <path d="M259.8,236.2v16.1h-2.3v-16.1h2.3Z" class="cls-2"></path>
      <path d="M277.1,236.1l6.6,16.2h-2.5l-1.7-4.2h-6.9l-1.7,4.2h-2.4l6.6-16.2h2ZM273.2,246.2h5.6l-2.8-7.2-2.8,7.2h0Z" class="cls-2"></path>
      <path d="M310,236.2l.9,16.1h-5.2l-.2-9.2-2.1,9.2h-4.5l-2.1-9.2-.2,9.2h-5.2l.9-16.1h6.8l2,8.8,2-8.8h6.8Z" class="cls-2"></path>
      <path d="M336.6,244.2c0,2.6-.8,4.6-2.5,6.1-1.6,1.5-3.7,2.2-6.3,2.2s-4.7-.8-6.3-2.2c-1.6-1.5-2.5-3.5-2.5-6.1s.8-4.6,2.5-6.1c1.6-1.5,3.7-2.2,6.3-2.2s4.7.8,6.3,2.2c1.6,1.5,2.5,3.5,2.5,6.1ZM331.3,244.1c0-1.1-.3-2-.9-2.7-.6-.7-1.5-1.1-2.5-1.1s-1.9.4-2.5,1.1c-.6.7-.9,1.6-.9,2.7s.3,2,.9,2.7c.6.7,1.5,1,2.5,1s1.9-.4,2.5-1c.6-.7.9-1.6.9-2.7Z" class="cls-2"></path>
      <path d="M351.3,252.3h-6.1v-16.1h6.1c2.8,0,4.9.6,6.4,1.8,1.8,1.4,2.7,3.5,2.7,6.3s-.9,4.9-2.7,6.3c-1.5,1.2-3.6,1.8-6.4,1.8h0ZM354.2,241.3c-.5-.5-1.4-.8-2.5-.8h-1.2v7.4h1.2c1.1,0,1.9-.3,2.5-.8s.9-1.6.9-2.8-.3-2.3-.9-2.9h0Z" class="cls-2"></path>
      <path d="M378.6,236.2l5.6,16.1h-5.7l-.6-2.3h-4.6l-.6,2.3h-5.5l5.6-16.1h5.8ZM374.4,246h2.4l-1.2-4.3-1.2,4.3Z" class="cls-2"></path>
    </g>
    <g>
      <path d="M123.9,265.3v1.3h-3.8v-6.5h1.5v5.2h2.3Z" class="cls-2"></path>
      <path d="M130.7,260l2.4,6.5h-1.7l-.5-1.3h-2.3l-.5,1.3h-1.6l2.4-6.5h1.6ZM129.1,264h1.6l-.8-2.3-.8,2.3Z" class="cls-2"></path>
      <path d="M144.8,266.1c-.4.4-1,.5-1.8.5s-1.6-.3-2.3-1l.8-1.1c.2.2.5.4.8.6.3.1.6.2.9.2.5,0,.9-.2.9-.7s0-.4-.3-.5-.3-.1-.5-.2l-1-.4c-.4-.2-.6-.3-.8-.5-.3-.3-.5-.7-.5-1.3s.2-1.1.7-1.4c.4-.4,1-.5,1.7-.5s.8,0,1.1.2c.4.1.7.3.9.6l-.6,1.1c-.4-.4-1-.7-1.4-.7s-.9.2-.9.6.2.5.4.6h.2c0,0,.5.3.5.3l.5.2c.4.1.7.3.9.5.3.3.5.8.5,1.3s-.2,1.2-.8,1.6h0Z" class="cls-2"></path>
      <path d="M153.4,265.3v1.2h-4.3v-6.5h4.2v1.2h-2.7v1.3h2.6v1.2h-2.6v1.5h2.8Z" class="cls-2"></path>
      <path d="M164,260l.5,6.5h-1.5l-.2-4.4h0l-1.4,4.4h-1.2l-1.4-4.4h0l-.2,4.4h-1.5l.5-6.5h1.9l1.4,4.3h0l1.3-4.3h1.9Z" class="cls-2"></path>
      <path d="M171.6,260l2.4,6.5h-1.7l-.5-1.3h-2.3l-.5,1.3h-1.6l2.4-6.5h1.6ZM169.9,264h1.6l-.8-2.3-.8,2.3Z" class="cls-2"></path>
      <path d="M183.2,260v6.5h-1.6l-2.9-4.4c0,.5,0,1,0,1.5v3h-1.5v-6.5h1.6l2.8,4.4c0-.5,0-1,0-1.4v-3h1.5Z" class="cls-2"></path>
      <path d="M190.6,260l2.4,6.5h-1.7l-.5-1.3h-2.3l-.5,1.3h-1.6l2.4-6.5h1.6ZM189,264h1.6l-.8-2.3-.8,2.3Z" class="cls-2"></path>
      <path d="M205.7,265.8c-.6.5-1.4.8-2.5.8h-2.2v-6.5h2.2c1.1,0,1.9.3,2.5.8.7.6,1.1,1.4,1.1,2.5s-.4,1.9-1.1,2.5h0ZM204.7,261.8c-.3-.3-.8-.5-1.4-.5h-.8v4h.8c.6,0,1-.2,1.4-.5.4-.4.6-.9.6-1.5s-.2-1.2-.6-1.5h0Z" class="cls-2"></path>
      <path d="M214.7,265.3v1.2h-4.3v-6.5h4.2v1.2h-2.7v1.3h2.6v1.2h-2.6v1.5h2.8Z" class="cls-2"></path>
      <path d="M226.8,265.3v1.3h-3.8v-6.5h1.5v5.2h2.3Z" class="cls-2"></path>
      <path d="M233.7,260l2.4,6.5h-1.7l-.5-1.3h-2.3l-.5,1.3h-1.6l2.4-6.5h1.6ZM232.1,264h1.6l-.8-2.3-.8,2.3Z" class="cls-2"></path>
      <path d="M250.9,260l.5,6.5h-1.5l-.2-4.4h0l-1.4,4.4h-1.2l-1.4-4.4h0l-.2,4.4h-1.5l.5-6.5h1.9l1.4,4.3h0l1.3-4.3h1.9Z" class="cls-2"></path>
      <path d="M261.7,263.3c0,1-.3,1.8-1,2.5-.6.6-1.5.9-2.5.9s-1.8-.3-2.5-.9c-.6-.6-1-1.4-1-2.5s.3-1.8,1-2.5c.6-.6,1.5-.9,2.5-.9s1.8.3,2.5.9c.6.6,1,1.4,1,2.5ZM260.2,263.3c0-.6-.2-1.1-.5-1.5s-.8-.6-1.4-.6-1,.2-1.4.6-.5.9-.5,1.5.2,1.1.5,1.5c.4.4.8.6,1.4.6s1-.2,1.4-.6c.4-.4.5-.9.5-1.5Z" class="cls-2"></path>
      <path d="M270.1,265.8c-.6.5-1.4.8-2.5.8h-2.2v-6.5h2.2c1.1,0,1.9.3,2.5.8.7.6,1.1,1.4,1.1,2.5s-.4,1.9-1.1,2.5h0ZM269,261.8c-.3-.3-.8-.5-1.4-.5h-.8v4h.8c.6,0,1-.2,1.4-.5.4-.4.6-.9.6-1.5s-.2-1.2-.6-1.5h0Z" class="cls-2"></path>
      <path d="M278,260l2.5,6.5h-1.7l-.5-1.3h-2.3l-.5,1.3h-1.6l2.5-6.5h1.6,0ZM276.3,264h1.6l-.8-2.3-.8,2.3Z" class="cls-2"></path>
      <path d="M293.1,265.8c-.6.5-1.4.8-2.5.8h-2.2v-6.5h2.2c1.1,0,1.9.3,2.5.8.7.6,1.1,1.4,1.1,2.5s-.4,1.9-1.1,2.5h0ZM292,261.8c-.3-.3-.8-.5-1.4-.5h-.8v4h.8c.6,0,1-.2,1.4-.5.4-.4.6-.9.6-1.5s-.2-1.2-.6-1.5h0Z" class="cls-2"></path>
      <path d="M302.1,265.3v1.2h-4.3v-6.5h4.2v1.2h-2.7v1.3h2.5v1.2h-2.5v1.5h2.8Z" class="cls-2"></path>
      <path d="M315.9,265.8c-.6.6-1.4.9-2.4.9s-1.8-.3-2.4-.9c-.6-.6-1-1.4-1-2.5s.3-1.8,1-2.5c.6-.6,1.5-.9,2.4-.9s1.1,0,1.4.2c.4.2.6.3.8.5l-.5,1.3c0-.1-.3-.3-.6-.4-.3-.2-.7-.2-1-.2-.6,0-1,.2-1.4.5s-.5.9-.5,1.5.2,1.1.6,1.5c.4.4.8.5,1.4.5s1.3-.2,1.8-.7l.5,1.2h0Z" class="cls-2"></path>
      <path d="M325.7,263.3c0,1-.3,1.8-1,2.5-.6.6-1.5.9-2.5.9s-1.8-.3-2.5-.9c-.6-.6-1-1.4-1-2.5s.3-1.8,1-2.5c.6-.6,1.5-.9,2.5-.9s1.8.3,2.5.9c.6.6,1,1.4,1,2.5ZM324.2,263.3c0-.6-.2-1.1-.5-1.5s-.8-.6-1.4-.6-1,.2-1.4.6-.5.9-.5,1.5.2,1.1.5,1.5c.4.4.8.6,1.4.6s1-.2,1.4-.6c.4-.4.5-.9.5-1.5Z" class="cls-2"></path>
      <path d="M333.1,265.3v1.3h-3.8v-6.5h1.5v5.2h2.3Z" class="cls-2"></path>
      <path d="M342.8,263.3c0,1-.3,1.8-1,2.5-.6.6-1.5.9-2.5.9s-1.8-.3-2.5-.9c-.6-.6-1-1.4-1-2.5s.3-1.8,1-2.5c.6-.6,1.5-.9,2.5-.9s1.8.3,2.5.9c.6.6,1,1.4,1,2.5ZM341.2,263.3c0-.6-.2-1.1-.5-1.5s-.8-.6-1.4-.6-1,.2-1.4.6-.5.9-.5,1.5.2,1.1.5,1.5c.4.4.8.6,1.4.6s1-.2,1.4-.6c.4-.4.5-.9.5-1.5Z" class="cls-2"></path>
      <path d="M353.2,260l.5,6.5h-1.5l-.2-4.4h0l-1.4,4.4h-1.2l-1.4-4.4h0l-.2,4.4h-1.5l.5-6.5h1.9l1.4,4.3h0l1.3-4.3h1.9Z" class="cls-2"></path>
      <path d="M361.8,266.1c-.4.3-.9.4-1.7.4h-2.7v-6.5h2.2c.7,0,1.3,0,1.6.3.6.3.8.8.8,1.4s-.4,1.3-1,1.4h0c.8.2,1.4.8,1.4,1.6s-.2,1.1-.7,1.4h0ZM360.3,261.3c-.1,0-.4-.1-.7-.1h-.6v1.5h.6c.3,0,.6,0,.7-.1.2-.1.3-.4.3-.6s-.1-.5-.3-.6h0ZM360.6,263.9c-.2-.1-.4-.2-.8-.2h-.8v1.7h.8c.4,0,.6,0,.8-.2.2-.1.3-.4.3-.6s-.1-.5-.3-.6h0Z" class="cls-2"></path>
      <path d="M367.6,260v6.5h-1.5v-6.5h1.5Z" class="cls-2"></path>
      <path d="M375,260l2.5,6.5h-1.7l-.5-1.3h-2.3l-.5,1.3h-1.6l2.5-6.5h1.6,0ZM373.3,264h1.6l-.8-2.3-.8,2.3Z" class="cls-2"></path>
      <path d="M380.9,262.9c-.4-.4-.6-.8-.6-1.4s.2-1,.6-1.4.8-.6,1.4-.6,1,.2,1.4.6c.4.4.6.8.6,1.4s-.2,1-.6,1.4c-.4.4-.8.6-1.4.6s-1-.2-1.4-.6ZM383.9,261.5c0-.5-.2-.9-.5-1.2s-.7-.5-1.2-.5-.9.2-1.2.5-.5.7-.5,1.2.2.9.5,1.2.7.5,1.2.5.9-.2,1.2-.5.5-.7.5-1.2ZM383.2,262.6h-.6l-.5-.9h-.2v.9h-.5v-2.3h.8c.5,0,.8.3.8.7s-.2.6-.5.6l.6,1h0ZM382.2,260.7h-.3v.6h.3c.3,0,.4-.1.4-.3s-.1-.3-.4-.3Z" class="cls-2"></path>
    </g>
  </g>
  <g class="cls-4">
    <g class="cls-4">
      <path d="M221.6,305.4v5.6c0,2-.4,3.8-1.2,5.2-.8,1.4-1.9,2.6-3.2,3.5-1.3.9-3,1.9-5.1,2.9-.3.1-.8.4-1.5.7-.8.4-1.4.9-1.9,1.5-.5.7-.7,1.9-.7,3.6h13.5v9h-24.3v-10.6c0-2.4.4-4.3,1.2-5.8.8-1.5,1.9-2.7,3.3-3.6,1.4-1,3.7-2.3,6.8-3.9,1.4-.7,2.3-1.5,2.9-2.2.6-.7.8-1.7.8-3v-3.4c0-.9-.3-1.5-.8-2-.6-.5-1.2-.8-2-.8s-1.5.3-2.1.8c-.6.5-.9,1.2-.9,2v7.2h-10v-5.6c0-2.3.6-4.4,1.7-6.3,1.1-1.8,2.7-3.3,4.6-4.3,1.9-1,4-1.5,6.3-1.5,3.8,0,6.9.9,9.2,2.8s3.5,4.5,3.5,8Z" class="cls-2"></path>
    </g>
    <g class="cls-4">
      <path d="M230.3,336.6c-2-1-3.6-2.4-4.8-4.3-1.2-1.8-1.7-3.9-1.7-6.3v-19.3c0-2.4.6-4.5,1.7-6.3,1.1-1.8,2.7-3.3,4.7-4.3,2-1,4.4-1.5,7-1.5,3.9,0,7,1.1,9.5,3.3,2.4,2.2,3.7,5.1,3.7,8.8v19.3c0,2.4-.5,4.5-1.6,6.3-1.1,1.8-2.6,3.3-4.6,4.3-2,1-4.2,1.5-6.9,1.5s-5-.5-7-1.5ZM234,327.9c.7.7,1.8,1.1,3.3,1.1s2.3-.4,2.9-1.1c.7-.7,1-1.7,1-2.9v-17.4c0-2.6-1.3-4-4-4s-4.4,1.3-4.4,4v17.2c0,1.3.4,2.3,1.1,3Z" class="cls-2"></path>
    </g>
    <g class="cls-4">
      <path d="M277.6,305.4v5.6c0,2-.4,3.8-1.2,5.2s-1.9,2.6-3.2,3.5c-1.3.9-3,1.9-5.1,2.9-.3.1-.8.4-1.5.7-.8.4-1.4.9-1.9,1.5-.5.7-.7,1.9-.7,3.6h13.5v9h-24.3v-10.6c0-2.4.4-4.3,1.2-5.8.8-1.5,1.9-2.7,3.3-3.6,1.4-1,3.7-2.3,6.8-3.9,1.4-.7,2.3-1.5,2.9-2.2.6-.7.8-1.7.8-3v-3.4c0-.9-.3-1.5-.8-2-.6-.5-1.2-.8-2-.8s-1.5.3-2.1.8-.9,1.2-.9,2v7.2h-10v-5.6c0-2.3.6-4.4,1.7-6.3,1.1-1.8,2.7-3.3,4.6-4.3,1.9-1,4-1.5,6.3-1.5,3.8,0,6.9.9,9.2,2.8s3.5,4.5,3.5,8Z" class="cls-2"></path>
    </g>
    <g class="cls-4">
      <path d="M294.6,330.1h-14.9v-8.7l8.6-26.3h15.6v25.8c0,0,4.4,0,4.4,0v9.2h-4.5v7.3c0,0-9.1,0-9.1,0v-7.3ZM294.6,321v-18c0,0-5.1,18-5.1,18h5.1Z" class="cls-2"></path>
    </g>
  </g>
  <g>
    <path d="M229.8,202.2l1.3-2.7,5.3-11.1h0l9.2-19c.9-1.9,2.6-4.2,6.6-4.2s5.6,2.3,6.6,4.2h0l7.7,16.1,3.8,7.9h0l2.1,4.3h0c0,0,2.1,4.4,2.1,4.4h5.9l-15.8-33.1c-2.8-5.9-5.8-9.3-12.4-9.3s-9.6,3.4-12.4,9.3l-15.8,33.1h5.8,0Z" class="cls-2"></path>
    <path d="M240.6,202.2l10.2-21.5c.2-.4.5-1,1.3-1,.8,0,1.1.6,1.3,1l10.2,21.5h4.8l-11.8-24.8c-.7-1.4-1.9-3.4-4.6-3.4s-4,1.9-4.6,3.4l-11.8,24.8h4.8Z" class="cls-2"></path>
  </g>
</svg>